0
SECTION
2
HEADER
9
$INSUNITS
70
4
0
ENDSEC
0
SECTION
2
TABLES
0
TABLE
2
LTYPE
0
LTYPE
72
65
70
64
2
CONTINUOUS
3
______
73
0
40
0
0
ENDTAB
0
TABLE
2
LAYER
0
ENDTAB
0
ENDSEC
0
SECTION
2
ENTITIES
0
LINE
8
0
10
90.1626903
20
-109.1775453
11
108.0941949
21
-110.7463487
0
LINE
8
0
10
109.1775453
20
-109.8373097
11
109.4390126
21
-106.8487257
0
LINE
8
0
10
90.9096104
20
-89.1664956
11
89.2536513
21
-108.0941949
0
LINE
8
0
10
92.6527253
20
-69.2426016
11
90.9096105
21
-89.1664956
0
LINE
8
0
10
94.3958402
20
-49.3187076
11
92.6527254
21
-69.2426016
0
LINE
8
0
10
94.3958403
20
-49.3187076
11
96.4875781
21
-25.4100347
0
LINE
8
0
10
110.522363
20
-105.9396867
11
118.4919205
21
-106.6369326
0
LINE
8
0
10
97.5709285
20
-24.5009958
11
135.4263271
21
-27.8129141
0
LINE
8
0
10
155.7859998
20
-24.5750554
11
137.8544952
21
-23.006252
0
LINE
8
0
10
136.7711448
20
-23.915291
11
136.5096775
21
-26.9038751
0
LINE
8
0
10
176.5317768
20
-28.3977154
11
177.0547114
21
-22.4205472
0
LINE
8
0
10
176.1456724
20
-21.3371968
11
158.2141678
21
-19.7683934
0
LINE
8
0
10
157.1308174
20
-20.6774324
11
156.8693502
21
-23.6660164
0
LINE
8
0
10
196.3685151
20
-31.1370249
11
177.4408158
21
-29.4810658
0
LINE
8
0
10
203.3674004
20
-31.7493481
11
196.3685151
21
-31.137025
0
LINE
8
0
10
128.7031421
20
-127.6066955
11
147.6308414
21
-129.2626546
0
LINE
8
0
10
128.9271278
20
-113.5728139
11
127.7941031
21
-126.5233451
0
LINE
8
0
10
147.6308414
20
-129.2626547
11
211.8853994
21
-134.8842
0
LINE
8
0
10
352.8236145
20
-110.7463487
11
370.7551191
21
-109.1775453
0
LINE
8
0
10
371.6641581
20
-108.0941949
11
370.008199
21
-89.1664956
0
LINE
8
0
10
351.4787968
20
-106.8487257
11
351.7402641
21
-109.8373097
0
LINE
8
0
10
370.0081989
20
-89.1664956
11
368.2650841
21
-69.2426016
0
LINE
8
0
10
368.265084
20
-69.2426016
11
366.5219692
21
-49.3187076
0
LINE
8
0
10
364.4302313
20
-25.4100347
11
366.5219691
21
-49.3187076
0
LINE
8
0
10
342.4258889
20
-106.6369326
11
350.3954464
21
-105.9396867
0
LINE
8
0
10
325.4914823
20
-27.8129141
11
363.3468809
21
-24.5009958
0
LINE
8
0
10
324.4081319
20
-26.9038751
11
324.1466646
21
-23.915291
0
LINE
8
0
10
323.0633142
20
-23.006252
11
305.1318096
21
-24.5750554
0
LINE
8
0
10
304.0484592
20
-23.6660164
11
303.786992
21
-20.6774324
0
LINE
8
0
10
302.7036416
20
-19.7683934
11
284.772137
21
-21.3371968
0
LINE
8
0
10
283.863098
20
-22.4205472
11
284.3860326
21
-28.3977154
0
LINE
8
0
10
283.4769936
20
-29.4810658
11
264.5492943
21
-31.1370249
0
LINE
8
0
10
264.5492943
20
-31.137025
11
257.550409
21
-31.7493481
0
LINE
8
0
10
313.286968
20
-129.2626546
11
332.2146673
21
-127.6066955
0
LINE
8
0
10
333.1237063
20
-126.5233451
11
331.9906816
21
-113.5728139
0
LINE
8
0
10
249.03241
20
-134.8842
11
313.286968
21
-129.2626547
0
LINE
8
0
10
120.0485312
20
-111.7922175
11
128.0180888
21
-112.4894635
0
LINE
8
0
10
119.4009595
20
-107.720283
11
119.1394922
21
-110.7088671
0
LINE
8
0
10
332.8997206
20
-112.4894635
11
340.8692782
21
-111.7922175
0
LINE
8
0
10
341.7783172
20
-110.7088671
11
341.5168499
21
-107.720283
0
LINE
8
0
10
257.4632533
20
-31.7531534
11
203.4545561
21
-31.7531534
0
LINE
8
0
10
214.5777061
20
-115.927283
11
220.3567362
21
-99.1781866
0
LINE
8
0
10
221.3020486
20
-98.5043528
11
239.6157608
21
-98.5043528
0
LINE
8
0
10
240.5610732
20
-99.1781866
11
246.3401033
21
-115.927283
0
LINE
8
0
10
212.9687498
20
-133.975161
11
214.5268238
21
-116.1662935
0
LINE
8
0
10
246.3909856
20
-116.1662935
11
247.9490596
21
-133.975161
0
ARC
8
0
10
108.1813506
20
-109.750154
40
1
50
265.0000024
51
355.0000024
0
ARC
8
0
10
110.4352073
20
-106.9358814
40
1
50
85.0000024
51
175.0000024
0
ARC
8
0
10
118.4047648
20
-107.6331273
40
1
50
355.0000024
51
85.0000024
0
ARC
8
0
10
120.1356869
20
-110.7960228
40
1
50
175.0000024
51
265.0000024
0
ARC
8
0
10
127.9309331
20
-113.4856582
40
1
50
355.0000024
51
85.0000024
0
ARC
8
0
10
128.7902978
20
-126.6105008
40
1
50
175.0000024
51
265.0000024
0
ARC
8
0
10
211.9725551
20
-133.8880053
40
1
50
265.0000024
51
355.0000024
0
ARC
8
0
10
215.5230185
20
-116.2534492
40
1
50
160.9637554
51
175.0000024
0
ARC
8
0
10
221.3020486
20
-99.5043528
40
1
50
90
51
160.9637554
0
ARC
8
0
10
239.6157608
20
-99.5043528
40
1
50
19.0362446
51
90
0
ARC
8
0
10
245.3947909
20
-116.2534492
40
1
50
4.9999976
51
19.0362446
0
ARC
8
0
10
248.9452543
20
-133.8880053
40
1
50
184.9999976
51
274.9999976
0
ARC
8
0
10
332.1275116
20
-126.6105008
40
1
50
274.9999976
51
4.9999976
0
ARC
8
0
10
332.9868763
20
-113.4856582
40
1
50
94.9999976
51
184.9999976
0
ARC
8
0
10
340.7821225
20
-110.7960228
40
1
50
274.9999976
51
4.9999976
0
ARC
8
0
10
342.5130446
20
-107.6331273
40
1
50
94.9999976
51
184.9999976
0
ARC
8
0
10
350.4826021
20
-106.9358814
40
1
50
4.9999976
51
94.9999976
0
ARC
8
0
10
352.7364588
20
-109.750154
40
1
50
184.9999976
51
274.9999976
0
ARC
8
0
10
370.6679634
20
-108.1813506
40
1
50
274.9999976
51
4.9999976
0
ARC
8
0
10
363.4340366
20
-25.4971905
40
1
50
5.0000033
51
94.9999976
0
ARC
8
0
10
325.4043266
20
-26.8167194
40
1
50
184.9999976
51
274.9999976
0
ARC
8
0
10
323.1504699
20
-24.0024467
40
1
50
4.9999976
51
94.9999976
0
ARC
8
0
10
305.0446539
20
-23.5788607
40
1
50
184.9999976
51
274.9999976
0
ARC
8
0
10
302.7907973
20
-20.7645881
40
1
50
4.9999976
51
94.9999976
0
ARC
8
0
10
284.8592927
20
-22.3333915
40
1
50
94.9999976
51
184.9999976
0
ARC
8
0
10
283.3898379
20
-28.4848711
40
1
50
274.9999976
51
4.9999976
0
ARC
8
0
10
257.4632533
20
-30.7531534
40
1
50
270
51
274.9999976
0
ARC
8
0
10
203.4545561
20
-30.7531534
40
1
50
265.0000024
51
270
0
ARC
8
0
10
177.5279715
20
-28.4848711
40
1
50
175.0000024
51
265.0000024
0
ARC
8
0
10
176.0585167
20
-22.3333915
40
1
50
355.0000024
51
85.0000024
0
ARC
8
0
10
158.1270121
20
-20.7645881
40
1
50
85.0000024
51
175.0000024
0
ARC
8
0
10
155.8731555
20
-23.5788607
40
1
50
265.0000024
51
355.0000024
0
ARC
8
0
10
137.7673395
20
-24.0024467
40
1
50
85.0000024
51
175.0000024
0
ARC
8
0
10
135.5134828
20
-26.8167194
40
1
50
265.0000024
51
355.0000024
0
ARC
8
0
10
97.4837728
20
-25.4971905
40
1
50
85.0000024
51
174.9999967
0
ARC
8
0
10
90.249846
20
-108.1813506
40
1
50
175.0000024
51
265.0000024
0
ENDSEC
0
EOF