M48
; DRILL file {KiCad 9.0.2} date 2025-06-04T11:45:26-0600
; FORMAT={-:-/ absolute / metric / decimal}
; #@! TF.CreationDate,2025-06-04T11:45:26-06:00
; #@! TF.GenerationSoftware,Kicad,Pcbnew,9.0.2
; #@! TF.FileFunction,Plated,1,2,PTH
FMAT,2
METRIC
; #@! TA.AperFunction,Plated,PTH,ViaDrill
T1C0.400
; #@! TA.AperFunction,Plated,PTH,ComponentDrill
T2C0.400
%
G90
G05
T1
X222.545Y-61.053
X222.545Y-63.593
X222.545Y-66.133
X237.785Y-61.053
X237.785Y-63.593
X237.785Y-66.133
X241.0Y-78.0
X243.0Y-76.0
X243.0Y-82.0
X245.0Y-82.0
T2
X97.279Y-102.422
X99.022Y-82.498
X100.765Y-62.574
X101.537Y-102.795
X102.508Y-42.65
X103.28Y-82.871
X105.024Y-62.947
X106.767Y-43.023
X117.638Y-99.184
X119.381Y-79.26
X121.124Y-59.336
X121.897Y-99.557
X122.868Y-39.412
X123.64Y-79.633
X125.383Y-59.709
X127.126Y-39.785
X135.819Y-120.851
X137.998Y-95.946
X139.741Y-76.022
X140.078Y-121.224
X141.484Y-56.099
X142.257Y-96.319
X143.227Y-36.175
X144.0Y-76.395
X145.743Y-56.471
X147.486Y-36.547
X155.743Y-122.594
X158.358Y-92.708
X160.002Y-122.967
X160.101Y-72.785
X161.844Y-52.861
X162.616Y-93.081
X163.587Y-32.937
X164.359Y-73.157
X166.103Y-53.233
X167.846Y-33.309
X177.584Y-102.421
X179.327Y-82.497
X181.07Y-62.573
X181.843Y-102.794
X182.814Y-42.649
X183.586Y-82.87
X185.329Y-62.946
X185.629Y-125.209
X187.072Y-43.022
X189.887Y-125.582
X197.508Y-104.164
X199.251Y-84.24
X200.994Y-64.316
X201.767Y-104.537
X202.737Y-44.393
X203.51Y-84.613
X205.253Y-64.689
X206.996Y-44.765
X253.199Y-44.828
X254.942Y-64.752
X256.686Y-84.676
X257.458Y-44.456
X258.429Y-104.6
X259.201Y-64.38
X260.944Y-84.304
X262.687Y-104.227
X270.308Y-125.645
X273.123Y-43.085
X274.567Y-125.272
X274.866Y-63.009
X276.61Y-82.933
X277.382Y-42.713
X278.353Y-102.857
X279.125Y-62.637
X280.868Y-82.56
X282.611Y-102.484
X292.35Y-33.373
X294.093Y-53.296
X295.836Y-73.22
X296.609Y-33.0
X297.579Y-93.144
X298.352Y-52.924
X300.095Y-72.848
X300.194Y-123.03
X301.838Y-92.772
X304.453Y-122.657
X312.71Y-36.61
X314.453Y-56.534
X316.196Y-76.458
X316.968Y-36.238
X317.939Y-96.382
X318.711Y-56.162
X320.118Y-121.287
X320.455Y-76.086
X322.198Y-96.009
X324.377Y-120.914
X333.069Y-39.848
X334.812Y-59.772
X336.555Y-79.696
X337.328Y-39.476
X338.299Y-99.62
X339.071Y-59.4
X340.814Y-79.323
X342.557Y-99.247
X353.429Y-43.086
X355.172Y-63.01
X356.915Y-82.934
X357.688Y-42.714
X358.658Y-102.858
X359.431Y-62.637
X361.174Y-82.561
X362.917Y-102.485
M30
