%TF.GenerationSoftware,KiCad,Pcbnew,9.0.2*%
%TF.CreationDate,2025-06-04T11:45:29-06:00*%
%TF.ProjectId,chasm-v4,63686173-6d2d-4763-942e-6b696361645f,v1.0.0*%
%TF.SameCoordinates,Original*%
%TF.FileFunction,Profile,NP*%
%FSLAX46Y46*%
G04 Gerber Fmt 4.6, Leading zero omitted, Abs format (unit mm)*
G04 Created by KiCad (PCBNEW 9.0.2) date 2025-06-04 11:45:29*
%MOMM*%
%LPD*%
G01*
G04 APERTURE LIST*
%TA.AperFunction,Profile*%
%ADD10C,0.150000*%
%TD*%
G04 APERTURE END LIST*
D10*
X90162690Y-109177545D02*
X108094195Y-110746349D01*
X109177545Y-109837310D02*
X109439013Y-106848726D01*
X90909610Y-89166496D02*
X89253651Y-108094195D01*
X92652725Y-69242602D02*
X90909611Y-89166496D01*
X94395840Y-49318708D02*
X92652725Y-69242602D01*
X94395840Y-49318708D02*
X96487578Y-25410035D01*
X110522363Y-105939687D02*
X118491920Y-106636933D01*
X97570929Y-24500996D02*
X135426327Y-27812914D01*
X155786000Y-24575055D02*
X137854495Y-23006252D01*
X136771145Y-23915291D02*
X136509678Y-26903875D01*
X176531777Y-28397715D02*
X177054711Y-22420547D01*
X176145672Y-21337197D02*
X158214168Y-19768393D01*
X157130817Y-20677432D02*
X156869350Y-23666016D01*
X196368515Y-31137025D02*
X177440816Y-29481066D01*
X203367400Y-31749348D02*
X196368515Y-31137025D01*
X128703142Y-127606696D02*
X147630841Y-129262655D01*
X128927128Y-113572814D02*
X127794103Y-126523345D01*
X147630841Y-129262655D02*
X211885399Y-134884200D01*
X352823614Y-110746349D02*
X370755119Y-109177545D01*
X371664158Y-108094195D02*
X370008199Y-89166496D01*
X351478797Y-106848726D02*
X351740264Y-109837310D01*
X370008199Y-89166496D02*
X368265084Y-69242602D01*
X368265084Y-69242602D02*
X366521969Y-49318708D01*
X364430231Y-25410035D02*
X366521969Y-49318708D01*
X342425889Y-106636933D02*
X350395446Y-105939687D01*
X325491482Y-27812914D02*
X363346881Y-24500996D01*
X324408132Y-26903875D02*
X324146665Y-23915291D01*
X323063314Y-23006252D02*
X305131810Y-24575055D01*
X304048459Y-23666016D02*
X303786992Y-20677432D01*
X302703642Y-19768393D02*
X284772137Y-21337197D01*
X283863098Y-22420547D02*
X284386033Y-28397715D01*
X283476994Y-29481066D02*
X264549294Y-31137025D01*
X264549294Y-31137025D02*
X257550409Y-31749348D01*
X313286968Y-129262655D02*
X332214667Y-127606696D01*
X333123706Y-126523345D02*
X331990682Y-113572814D01*
X249032410Y-134884200D02*
X313286968Y-129262655D01*
X120048531Y-111792218D02*
X128018089Y-112489463D01*
X119400959Y-107720283D02*
X119139492Y-110708867D01*
X332899721Y-112489463D02*
X340869278Y-111792218D01*
X341778317Y-110708867D02*
X341516850Y-107720283D01*
X257463253Y-31753153D02*
X203454556Y-31753153D01*
X214577706Y-115927283D02*
X220356736Y-99178187D01*
X221302049Y-98504353D02*
X239615761Y-98504353D01*
X240561073Y-99178187D02*
X246340103Y-115927283D01*
X212968750Y-133975161D02*
X214526824Y-116166293D01*
X246390986Y-116166293D02*
X247949060Y-133975161D01*
X109177546Y-109837310D02*
G75*
G02*
X108094195Y-110746349I-996195J87156D01*
G01*
X109439013Y-106848725D02*
G75*
G02*
X110522363Y-105939687I996194J-87156D01*
G01*
X118491921Y-106636933D02*
G75*
G02*
X119400959Y-107720283I-87156J-996194D01*
G01*
X120048531Y-111792218D02*
G75*
G02*
X119139492Y-110708867I87156J996195D01*
G01*
X128018089Y-112489463D02*
G75*
G02*
X128927128Y-113572814I-87156J-996195D01*
G01*
X128703142Y-127606696D02*
G75*
G02*
X127794103Y-126523345I87156J996195D01*
G01*
X212968750Y-133975161D02*
G75*
G02*
X211885399Y-134884200I-996195J87156D01*
G01*
X214526824Y-116166294D02*
G75*
G02*
X214577706Y-115927283I996195J-87155D01*
G01*
X220356737Y-99178187D02*
G75*
G02*
X221302049Y-98504353I945312J-326166D01*
G01*
X239615761Y-98504353D02*
G75*
G02*
X240561073Y-99178187I0J-1000000D01*
G01*
X246340104Y-115927282D02*
G75*
G02*
X246390986Y-116166293I-945313J-326167D01*
G01*
X249032410Y-134884199D02*
G75*
G02*
X247949060Y-133975161I-87156J996194D01*
G01*
X333123707Y-126523346D02*
G75*
G02*
X332214667Y-127606696I-996195J-87155D01*
G01*
X331990681Y-113572813D02*
G75*
G02*
X332899721Y-112489463I996195J87155D01*
G01*
X341778317Y-110708867D02*
G75*
G02*
X340869278Y-111792218I-996195J-87156D01*
G01*
X341516851Y-107720283D02*
G75*
G02*
X342425889Y-106636933I996194J87156D01*
G01*
X350395447Y-105939686D02*
G75*
G02*
X351478797Y-106848726I87155J-996195D01*
G01*
X352823615Y-110746349D02*
G75*
G02*
X351740264Y-109837310I-87156J996195D01*
G01*
X371664157Y-108094195D02*
G75*
G02*
X370755119Y-109177545I-996194J-87156D01*
G01*
X363346881Y-24500997D02*
G75*
G02*
X364430231Y-25410035I87156J-996194D01*
G01*
X325491483Y-27812914D02*
G75*
G02*
X324408132Y-26903875I-87156J996195D01*
G01*
X323063314Y-23006252D02*
G75*
G02*
X324146665Y-23915291I87156J-996195D01*
G01*
X305131809Y-24575056D02*
G75*
G02*
X304048459Y-23666016I-87155J996195D01*
G01*
X302703641Y-19768393D02*
G75*
G02*
X303786992Y-20677432I87156J-996195D01*
G01*
X283863099Y-22420547D02*
G75*
G02*
X284772137Y-21337197I996194J87156D01*
G01*
X284386033Y-28397715D02*
G75*
G02*
X283476994Y-29481066I-996195J-87156D01*
G01*
X257550409Y-31749348D02*
G75*
G02*
X257463253Y-31753153I-87156J996195D01*
G01*
X203454556Y-31753153D02*
G75*
G02*
X203367400Y-31749348I0J1000000D01*
G01*
X177440816Y-29481066D02*
G75*
G02*
X176531777Y-28397715I87156J996195D01*
G01*
X176145673Y-21337197D02*
G75*
G02*
X177054711Y-22420547I-87156J-996194D01*
G01*
X157130817Y-20677432D02*
G75*
G02*
X158214168Y-19768393I996195J-87156D01*
G01*
X156869350Y-23666017D02*
G75*
G02*
X155786000Y-24575055I-996194J87156D01*
G01*
X136771144Y-23915291D02*
G75*
G02*
X137854495Y-23006252I996195J-87156D01*
G01*
X136509678Y-26903875D02*
G75*
G02*
X135426327Y-27812914I-996195J87156D01*
G01*
X96487578Y-25410035D02*
G75*
G02*
X97570929Y-24500996I996195J-87156D01*
G01*
X90162690Y-109177546D02*
G75*
G02*
X89253651Y-108094195I87156J996195D01*
G01*
M02*
