%TF.GenerationSoftware,KiCad,Pcbnew,9.0.2*%
%TF.CreationDate,2025-06-04T11:45:29-06:00*%
%TF.ProjectId,chasm-v4,63686173-6d2d-4763-942e-6b696361645f,v1.0.0*%
%TF.SameCoordinates,Original*%
%TF.FileFunction,Soldermask,Bot*%
%TF.FilePolarity,Negative*%
%FSLAX46Y46*%
G04 Gerber Fmt 4.6, Leading zero omitted, Abs format (unit mm)*
G04 Created by KiCad (PCBNEW 9.0.2) date 2025-06-04 11:45:29*
%MOMM*%
%LPD*%
G01*
G04 APERTURE LIST*
%ADD10C,0.900000*%
%ADD11C,1.300000*%
%ADD12C,1.100000*%
%ADD13C,0.850000*%
%ADD14C,4.100000*%
G04 APERTURE END LIST*
D10*
%TO.C,S1*%
X101537283Y-102794617D03*
X97278551Y-102422027D03*
D11*
X106017608Y-97765968D03*
D12*
X93982392Y-102234032D03*
%TD*%
D10*
%TO.C,S2*%
X103280398Y-82870723D03*
X99021666Y-82498133D03*
D11*
X107760723Y-77842074D03*
D12*
X95725507Y-82310138D03*
%TD*%
D10*
%TO.C,S3*%
X105023513Y-62946829D03*
X100764781Y-62574239D03*
D11*
X109503838Y-57918180D03*
D12*
X97468622Y-62386244D03*
%TD*%
D10*
%TO.C,S4*%
X106766628Y-43022935D03*
X102507896Y-42650345D03*
D11*
X111246953Y-37994286D03*
D12*
X99211737Y-42462350D03*
%TD*%
D10*
%TO.C,S5*%
X121896956Y-99556758D03*
X117638224Y-99184168D03*
D11*
X126377281Y-94528109D03*
D12*
X114342065Y-98996173D03*
%TD*%
D10*
%TO.C,S6*%
X123640071Y-79632864D03*
X119381339Y-79260274D03*
D11*
X128120396Y-74604215D03*
D12*
X116085180Y-79072279D03*
%TD*%
D10*
%TO.C,S7*%
X125383186Y-59708970D03*
X121124454Y-59336380D03*
D11*
X129863511Y-54680321D03*
D12*
X117828295Y-59148385D03*
%TD*%
D10*
%TO.C,S8*%
X127126300Y-39785076D03*
X122867568Y-39412486D03*
D11*
X131606625Y-34756427D03*
D12*
X119571409Y-39224491D03*
%TD*%
D10*
%TO.C,S9*%
X142256628Y-96318900D03*
X137997896Y-95946310D03*
D11*
X146736953Y-91290251D03*
D12*
X134701737Y-95758315D03*
%TD*%
D10*
%TO.C,S10*%
X143999743Y-76395006D03*
X139741011Y-76022416D03*
D11*
X148480068Y-71366357D03*
D12*
X136444852Y-75834421D03*
%TD*%
D10*
%TO.C,S11*%
X145742858Y-56471112D03*
X141484126Y-56098522D03*
D11*
X150223183Y-51442463D03*
D12*
X138187967Y-55910527D03*
%TD*%
D10*
%TO.C,S12*%
X147485973Y-36547218D03*
X143227241Y-36174628D03*
D11*
X151966298Y-31518569D03*
D12*
X139931082Y-35986633D03*
%TD*%
D10*
%TO.C,S13*%
X162616301Y-93081041D03*
X158357569Y-92708451D03*
D11*
X167096626Y-88052392D03*
D12*
X155061410Y-92520456D03*
%TD*%
D10*
%TO.C,S14*%
X164359416Y-73157147D03*
X160100684Y-72784557D03*
D11*
X168839741Y-68128498D03*
D12*
X156804525Y-72596562D03*
%TD*%
D10*
%TO.C,S15*%
X166102531Y-53233253D03*
X161843799Y-52860663D03*
D11*
X170582856Y-48204604D03*
D12*
X158547640Y-52672668D03*
%TD*%
D10*
%TO.C,S16*%
X167845646Y-33309359D03*
X163586914Y-32936769D03*
D11*
X172325971Y-28280710D03*
D12*
X160290755Y-32748774D03*
%TD*%
D10*
%TO.C,S17*%
X181842949Y-102793714D03*
X177584217Y-102421124D03*
D11*
X186323274Y-97765065D03*
D12*
X174288058Y-102233129D03*
%TD*%
D10*
%TO.C,S18*%
X183586064Y-82869819D03*
X179327332Y-82497229D03*
D11*
X188066389Y-77841170D03*
D12*
X176031173Y-82309234D03*
%TD*%
D10*
%TO.C,S19*%
X185329179Y-62945925D03*
X181070447Y-62573335D03*
D11*
X189809504Y-57917276D03*
D12*
X177774288Y-62385340D03*
%TD*%
D10*
%TO.C,S20*%
X187072294Y-43022031D03*
X182813562Y-42649441D03*
D11*
X191552619Y-37993382D03*
D12*
X179517403Y-42461446D03*
%TD*%
D10*
%TO.C,S21*%
X201766843Y-104536828D03*
X197508111Y-104164238D03*
D11*
X206247168Y-99508179D03*
D12*
X194211952Y-103976243D03*
%TD*%
D10*
%TO.C,S22*%
X203509958Y-84612934D03*
X199251226Y-84240344D03*
D11*
X207990283Y-79584285D03*
D12*
X195955067Y-84052349D03*
%TD*%
D10*
%TO.C,S23*%
X205253073Y-64689040D03*
X200994341Y-64316450D03*
D11*
X209733398Y-59660391D03*
D12*
X197698182Y-64128455D03*
%TD*%
D10*
%TO.C,S24*%
X206996188Y-44765146D03*
X202737456Y-44392556D03*
D11*
X211476513Y-39736497D03*
D12*
X199441297Y-44204561D03*
%TD*%
D10*
%TO.C,S25*%
X140077735Y-121223767D03*
X135819003Y-120851177D03*
D11*
X144558060Y-116195118D03*
D12*
X132522844Y-120663182D03*
%TD*%
D10*
%TO.C,S26*%
X160001629Y-122966882D03*
X155742897Y-122594292D03*
D11*
X164481954Y-117938233D03*
D12*
X152446738Y-122406297D03*
%TD*%
D10*
%TO.C,S27*%
X189887470Y-125581554D03*
X185628738Y-125208964D03*
D11*
X194367795Y-120552905D03*
D12*
X182332579Y-125020969D03*
%TD*%
D10*
%TO.C,S28*%
X362917017Y-102485215D03*
X358658285Y-102857805D03*
D11*
X366456060Y-96754961D03*
D12*
X355379558Y-103245039D03*
%TD*%
D10*
%TO.C,S29*%
X361173903Y-82561321D03*
X356915171Y-82933911D03*
D11*
X364712946Y-76831067D03*
D12*
X353636444Y-83321145D03*
%TD*%
D10*
%TO.C,S30*%
X359430788Y-62637427D03*
X355172056Y-63010017D03*
D11*
X362969831Y-56907173D03*
D12*
X351893329Y-63397251D03*
%TD*%
D10*
%TO.C,S31*%
X357687673Y-42713533D03*
X353428941Y-43086123D03*
D11*
X361226716Y-36983279D03*
D12*
X350150214Y-43473357D03*
%TD*%
D10*
%TO.C,S32*%
X342557345Y-99247356D03*
X338298613Y-99619946D03*
D11*
X346096388Y-93517102D03*
D12*
X335019886Y-100007180D03*
%TD*%
D10*
%TO.C,S33*%
X340814230Y-79323462D03*
X336555498Y-79696052D03*
D11*
X344353273Y-73593208D03*
D12*
X333276771Y-80083286D03*
%TD*%
D10*
%TO.C,S34*%
X339071115Y-59399568D03*
X334812383Y-59772158D03*
D11*
X342610158Y-53669314D03*
D12*
X331533656Y-60159392D03*
%TD*%
D10*
%TO.C,S35*%
X337328000Y-39475674D03*
X333069268Y-39848264D03*
D11*
X340867043Y-33745420D03*
D12*
X329790541Y-40235498D03*
%TD*%
D10*
%TO.C,S36*%
X322197672Y-96009498D03*
X317938940Y-96382088D03*
D11*
X325736715Y-90279244D03*
D12*
X314660213Y-96769322D03*
%TD*%
D10*
%TO.C,S37*%
X320454557Y-76085604D03*
X316195825Y-76458194D03*
D11*
X323993600Y-70355350D03*
D12*
X312917098Y-76845428D03*
%TD*%
D10*
%TO.C,S38*%
X318711442Y-56161710D03*
X314452710Y-56534300D03*
D11*
X322250485Y-50431456D03*
D12*
X311173983Y-56921534D03*
%TD*%
D10*
%TO.C,S39*%
X316968327Y-36237816D03*
X312709595Y-36610406D03*
D11*
X320507370Y-30507562D03*
D12*
X309430868Y-36997640D03*
%TD*%
D10*
%TO.C,S40*%
X301837999Y-92771639D03*
X297579267Y-93144229D03*
D11*
X305377042Y-87041385D03*
D12*
X294300540Y-93531463D03*
%TD*%
D10*
%TO.C,S41*%
X300094884Y-72847745D03*
X295836152Y-73220335D03*
D11*
X303633927Y-67117491D03*
D12*
X292557425Y-73607569D03*
%TD*%
D10*
%TO.C,S42*%
X298351770Y-52923851D03*
X294093038Y-53296441D03*
D11*
X301890813Y-47193597D03*
D12*
X290814311Y-53683675D03*
%TD*%
D10*
%TO.C,S43*%
X296608655Y-32999957D03*
X292349923Y-33372547D03*
D11*
X300147698Y-27269703D03*
D12*
X289071196Y-33759781D03*
%TD*%
D10*
%TO.C,S44*%
X282611351Y-102484312D03*
X278352619Y-102856902D03*
D11*
X286150394Y-96754058D03*
D12*
X275073892Y-103244136D03*
%TD*%
D10*
%TO.C,S45*%
X280868236Y-82560417D03*
X276609504Y-82933007D03*
D11*
X284407279Y-76830163D03*
D12*
X273330777Y-83320241D03*
%TD*%
D10*
%TO.C,S46*%
X279125122Y-62636523D03*
X274866390Y-63009113D03*
D11*
X282664165Y-56906269D03*
D12*
X271587663Y-63396347D03*
%TD*%
D10*
%TO.C,S47*%
X277382007Y-42712629D03*
X273123275Y-43085219D03*
D11*
X280921050Y-36982375D03*
D12*
X269844548Y-43472453D03*
%TD*%
D10*
%TO.C,S48*%
X262687457Y-104227426D03*
X258428725Y-104600016D03*
D11*
X266226500Y-98497172D03*
D12*
X255149998Y-104987250D03*
%TD*%
D10*
%TO.C,S49*%
X260944343Y-84303532D03*
X256685611Y-84676122D03*
D11*
X264483386Y-78573278D03*
D12*
X253406884Y-85063356D03*
%TD*%
D10*
%TO.C,S50*%
X259201228Y-64379638D03*
X254942496Y-64752228D03*
D11*
X262740271Y-58649384D03*
D12*
X251663769Y-65139462D03*
%TD*%
D10*
%TO.C,S51*%
X257458113Y-44455744D03*
X253199381Y-44828334D03*
D11*
X260997156Y-38725490D03*
D12*
X249920654Y-45215568D03*
%TD*%
D10*
%TO.C,S52*%
X324376566Y-120914365D03*
X320117834Y-121286955D03*
D11*
X327915609Y-115184111D03*
D12*
X316839107Y-121674189D03*
%TD*%
D10*
%TO.C,S53*%
X304452672Y-122657480D03*
X300193940Y-123030070D03*
D11*
X307991715Y-116927226D03*
D12*
X296915213Y-123417304D03*
%TD*%
D10*
%TO.C,S54*%
X274566831Y-125272152D03*
X270308099Y-125644742D03*
D11*
X278105874Y-119541898D03*
D12*
X267029372Y-126031976D03*
%TD*%
D13*
%TO.C,B1*%
X209892897Y-124671680D03*
X212632433Y-124911358D03*
%TD*%
D12*
%TO.C,T1*%
X249785879Y-126285811D03*
X249524411Y-123297227D03*
%TD*%
D14*
%TO.C,*%
X222958905Y-95318317D03*
%TD*%
%TO.C,*%
X237958905Y-95318317D03*
%TD*%
%TO.C,*%
X217958905Y-36000000D03*
%TD*%
%TO.C,*%
X124294777Y-109152257D03*
%TD*%
%TO.C,*%
X336623032Y-109152257D03*
%TD*%
%TO.C,*%
X101250662Y-28336300D03*
%TD*%
%TO.C,*%
X359667147Y-28336300D03*
%TD*%
%TO.C,*%
X172884332Y-127456769D03*
%TD*%
%TO.C,*%
X288033478Y-127456769D03*
%TD*%
%TO.C,*%
X242958905Y-36000000D03*
%TD*%
M02*
