%TF.GenerationSoftware,KiCad,Pcbnew,9.0.2*%
%TF.CreationDate,2025-06-04T11:45:29-06:00*%
%TF.ProjectId,chasm-v4,63686173-6d2d-4763-942e-6b696361645f,v1.0.0*%
%TF.SameCoordinates,Original*%
%TF.FileFunction,Paste,Top*%
%TF.FilePolarity,Positive*%
%FSLAX46Y46*%
G04 Gerber Fmt 4.6, Leading zero omitted, Abs format (unit mm)*
G04 Created by KiCad (PCBNEW 9.0.2) date 2025-06-04 11:45:29*
%MOMM*%
%LPD*%
G01*
G04 APERTURE LIST*
G04 Aperture macros list*
%AMRoundRect*
0 Rectangle with rounded corners*
0 $1 Rounding radius*
0 $2 $3 $4 $5 $6 $7 $8 $9 X,Y pos of 4 corners*
0 Add a 4 corners polygon primitive as box body*
4,1,4,$2,$3,$4,$5,$6,$7,$8,$9,$2,$3,0*
0 Add four circle primitives for the rounded corners*
1,1,$1+$1,$2,$3*
1,1,$1+$1,$4,$5*
1,1,$1+$1,$6,$7*
1,1,$1+$1,$8,$9*
0 Add four rect primitives between the rounded corners*
20,1,$1+$1,$2,$3,$4,$5,0*
20,1,$1+$1,$4,$5,$6,$7,0*
20,1,$1+$1,$6,$7,$8,$9,0*
20,1,$1+$1,$8,$9,$2,$3,0*%
%AMRotRect*
0 Rectangle, with rotation*
0 The origin of the aperture is its center*
0 $1 length*
0 $2 width*
0 $3 Rotation angle, in degrees counterclockwise*
0 Add horizontal line*
21,1,$1,$2,0,0,$3*%
G04 Aperture macros list end*
%ADD10C,0.800000*%
%ADD11RoundRect,0.250000X-0.812513X-0.681779X0.681779X-0.812513X0.812513X0.681779X-0.681779X0.812513X0*%
%ADD12RotRect,1.550000X2.000000X355.000000*%
%ADD13RoundRect,0.250000X-0.681779X-0.812513X0.812513X-0.681779X0.681779X0.812513X-0.812513X0.681779X0*%
%ADD14RotRect,1.550000X2.000000X5.000000*%
%ADD15RotRect,0.900000X1.200000X355.000000*%
%ADD16RotRect,0.900000X1.200000X5.000000*%
%ADD17O,1.200000X1.700000*%
%ADD18R,1.200000X1.700000*%
%ADD19RotRect,1.550000X1.000000X265.000000*%
%ADD20RotRect,0.900000X0.900000X95.000000*%
%ADD21RotRect,0.900000X1.250000X95.000000*%
G04 APERTURE END LIST*
D10*
%TO.C,S1*%
X101537283Y-102794617D03*
X97278551Y-102422027D03*
D11*
X105802902Y-106530607D03*
X106848771Y-94576271D03*
X93151229Y-105423729D03*
X94197098Y-93469393D03*
D12*
X101537283Y-102794617D03*
X97278551Y-102422027D03*
%TD*%
D10*
%TO.C,S2*%
X103280398Y-82870723D03*
X99021666Y-82498133D03*
D11*
X107546017Y-86606713D03*
X108591886Y-74652377D03*
X94894344Y-85499835D03*
X95940213Y-73545499D03*
D12*
X103280398Y-82870723D03*
X99021666Y-82498133D03*
%TD*%
D10*
%TO.C,S3*%
X105023513Y-62946829D03*
X100764781Y-62574239D03*
D11*
X109289132Y-66682819D03*
X110335001Y-54728483D03*
X96637459Y-65575941D03*
X97683328Y-53621605D03*
D12*
X105023513Y-62946829D03*
X100764781Y-62574239D03*
%TD*%
D10*
%TO.C,S4*%
X106766628Y-43022935D03*
X102507896Y-42650345D03*
D11*
X111032247Y-46758925D03*
X112078116Y-34804589D03*
X98380574Y-45652047D03*
X99426443Y-33697711D03*
D12*
X106766628Y-43022935D03*
X102507896Y-42650345D03*
%TD*%
D10*
%TO.C,S5*%
X121896956Y-99556758D03*
X117638224Y-99184168D03*
D11*
X126162575Y-103292748D03*
X127208444Y-91338412D03*
X113510902Y-102185870D03*
X114556771Y-90231534D03*
D12*
X121896956Y-99556758D03*
X117638224Y-99184168D03*
%TD*%
D10*
%TO.C,S6*%
X123640071Y-79632864D03*
X119381339Y-79260274D03*
D11*
X127905690Y-83368854D03*
X128951559Y-71414518D03*
X115254017Y-82261976D03*
X116299886Y-70307640D03*
D12*
X123640071Y-79632864D03*
X119381339Y-79260274D03*
%TD*%
D10*
%TO.C,S7*%
X125383186Y-59708970D03*
X121124454Y-59336380D03*
D11*
X129648805Y-63444960D03*
X130694674Y-51490624D03*
X116997132Y-62338082D03*
X118043001Y-50383746D03*
D12*
X125383186Y-59708970D03*
X121124454Y-59336380D03*
%TD*%
D10*
%TO.C,S8*%
X127126300Y-39785076D03*
X122867568Y-39412486D03*
D11*
X131391919Y-43521066D03*
X132437788Y-31566730D03*
X118740246Y-42414188D03*
X119786115Y-30459852D03*
D12*
X127126300Y-39785076D03*
X122867568Y-39412486D03*
%TD*%
D10*
%TO.C,S9*%
X142256628Y-96318900D03*
X137997896Y-95946310D03*
D11*
X146522247Y-100054890D03*
X147568116Y-88100554D03*
X133870574Y-98948012D03*
X134916443Y-86993676D03*
D12*
X142256628Y-96318900D03*
X137997896Y-95946310D03*
%TD*%
D10*
%TO.C,S10*%
X143999743Y-76395006D03*
X139741011Y-76022416D03*
D11*
X148265362Y-80130996D03*
X149311231Y-68176660D03*
X135613689Y-79024118D03*
X136659558Y-67069782D03*
D12*
X143999743Y-76395006D03*
X139741011Y-76022416D03*
%TD*%
D10*
%TO.C,S11*%
X145742858Y-56471112D03*
X141484126Y-56098522D03*
D11*
X150008477Y-60207102D03*
X151054346Y-48252766D03*
X137356804Y-59100224D03*
X138402673Y-47145888D03*
D12*
X145742858Y-56471112D03*
X141484126Y-56098522D03*
%TD*%
D10*
%TO.C,S12*%
X147485973Y-36547218D03*
X143227241Y-36174628D03*
D11*
X151751592Y-40283208D03*
X152797461Y-28328872D03*
X139099919Y-39176330D03*
X140145788Y-27221994D03*
D12*
X147485973Y-36547218D03*
X143227241Y-36174628D03*
%TD*%
D10*
%TO.C,S13*%
X162616301Y-93081041D03*
X158357569Y-92708451D03*
D11*
X166881920Y-96817031D03*
X167927789Y-84862695D03*
X154230247Y-95710153D03*
X155276116Y-83755817D03*
D12*
X162616301Y-93081041D03*
X158357569Y-92708451D03*
%TD*%
D10*
%TO.C,S14*%
X164359416Y-73157147D03*
X160100684Y-72784557D03*
D11*
X168625035Y-76893137D03*
X169670904Y-64938801D03*
X155973362Y-75786259D03*
X157019231Y-63831923D03*
D12*
X164359416Y-73157147D03*
X160100684Y-72784557D03*
%TD*%
D10*
%TO.C,S15*%
X166102531Y-53233253D03*
X161843799Y-52860663D03*
D11*
X170368150Y-56969243D03*
X171414019Y-45014907D03*
X157716477Y-55862365D03*
X158762346Y-43908029D03*
D12*
X166102531Y-53233253D03*
X161843799Y-52860663D03*
%TD*%
D10*
%TO.C,S16*%
X167845646Y-33309359D03*
X163586914Y-32936769D03*
D11*
X172111265Y-37045349D03*
X173157134Y-25091013D03*
X159459592Y-35938471D03*
X160505461Y-23984135D03*
D12*
X167845646Y-33309359D03*
X163586914Y-32936769D03*
%TD*%
D10*
%TO.C,S17*%
X181842949Y-102793714D03*
X177584217Y-102421124D03*
D11*
X186108568Y-106529704D03*
X187154437Y-94575368D03*
X173456895Y-105422826D03*
X174502764Y-93468490D03*
D12*
X181842949Y-102793714D03*
X177584217Y-102421124D03*
%TD*%
D10*
%TO.C,S18*%
X183586064Y-82869819D03*
X179327332Y-82497229D03*
D11*
X187851683Y-86605809D03*
X188897552Y-74651473D03*
X175200010Y-85498931D03*
X176245879Y-73544595D03*
D12*
X183586064Y-82869819D03*
X179327332Y-82497229D03*
%TD*%
D10*
%TO.C,S19*%
X185329179Y-62945925D03*
X181070447Y-62573335D03*
D11*
X189594798Y-66681915D03*
X190640667Y-54727579D03*
X176943125Y-65575037D03*
X177988994Y-53620701D03*
D12*
X185329179Y-62945925D03*
X181070447Y-62573335D03*
%TD*%
D10*
%TO.C,S20*%
X187072294Y-43022031D03*
X182813562Y-42649441D03*
D11*
X191337913Y-46758021D03*
X192383782Y-34803685D03*
X178686240Y-45651143D03*
X179732109Y-33696807D03*
D12*
X187072294Y-43022031D03*
X182813562Y-42649441D03*
%TD*%
D10*
%TO.C,S21*%
X201766843Y-104536828D03*
X197508111Y-104164238D03*
D11*
X206032462Y-108272818D03*
X207078331Y-96318482D03*
X193380789Y-107165940D03*
X194426658Y-95211604D03*
D12*
X201766843Y-104536828D03*
X197508111Y-104164238D03*
%TD*%
D10*
%TO.C,S22*%
X203509958Y-84612934D03*
X199251226Y-84240344D03*
D11*
X207775577Y-88348924D03*
X208821446Y-76394588D03*
X195123904Y-87242046D03*
X196169773Y-75287710D03*
D12*
X203509958Y-84612934D03*
X199251226Y-84240344D03*
%TD*%
D10*
%TO.C,S23*%
X205253073Y-64689040D03*
X200994341Y-64316450D03*
D11*
X209518692Y-68425030D03*
X210564561Y-56470694D03*
X196867019Y-67318152D03*
X197912888Y-55363816D03*
D12*
X205253073Y-64689040D03*
X200994341Y-64316450D03*
%TD*%
D10*
%TO.C,S24*%
X206996188Y-44765146D03*
X202737456Y-44392556D03*
D11*
X211261807Y-48501136D03*
X212307676Y-36546800D03*
X198610134Y-47394258D03*
X199656003Y-35439922D03*
D12*
X206996188Y-44765146D03*
X202737456Y-44392556D03*
%TD*%
D10*
%TO.C,S25*%
X140077735Y-121223767D03*
X135819003Y-120851177D03*
D11*
X144343354Y-124959757D03*
X145389223Y-113005421D03*
X131691681Y-123852879D03*
X132737550Y-111898543D03*
D12*
X140077735Y-121223767D03*
X135819003Y-120851177D03*
%TD*%
D10*
%TO.C,S26*%
X160001629Y-122966882D03*
X155742897Y-122594292D03*
D11*
X164267248Y-126702872D03*
X165313117Y-114748536D03*
X151615575Y-125595994D03*
X152661444Y-113641658D03*
D12*
X160001629Y-122966882D03*
X155742897Y-122594292D03*
%TD*%
D10*
%TO.C,S27*%
X189887470Y-125581554D03*
X185628738Y-125208964D03*
D11*
X194153089Y-129317544D03*
X195198958Y-117363208D03*
X181501416Y-128210666D03*
X182547285Y-116256330D03*
D12*
X189887470Y-125581554D03*
X185628738Y-125208964D03*
%TD*%
D10*
%TO.C,S28*%
X362917017Y-102485215D03*
X358658285Y-102857805D03*
D13*
X367766580Y-105423729D03*
X366720711Y-93469393D03*
X355114907Y-106530607D03*
X354069038Y-94576271D03*
D14*
X362917017Y-102485215D03*
X358658285Y-102857805D03*
%TD*%
D10*
%TO.C,S29*%
X361173903Y-82561321D03*
X356915171Y-82933911D03*
D13*
X366023466Y-85499835D03*
X364977597Y-73545499D03*
X353371793Y-86606713D03*
X352325924Y-74652377D03*
D14*
X361173903Y-82561321D03*
X356915171Y-82933911D03*
%TD*%
D10*
%TO.C,S30*%
X359430788Y-62637427D03*
X355172056Y-63010017D03*
D13*
X364280351Y-65575941D03*
X363234482Y-53621605D03*
X351628678Y-66682819D03*
X350582809Y-54728483D03*
D14*
X359430788Y-62637427D03*
X355172056Y-63010017D03*
%TD*%
D10*
%TO.C,S31*%
X357687673Y-42713533D03*
X353428941Y-43086123D03*
D13*
X362537236Y-45652047D03*
X361491367Y-33697711D03*
X349885563Y-46758925D03*
X348839694Y-34804589D03*
D14*
X357687673Y-42713533D03*
X353428941Y-43086123D03*
%TD*%
D10*
%TO.C,S32*%
X342557345Y-99247356D03*
X338298613Y-99619946D03*
D13*
X347406908Y-102185870D03*
X346361039Y-90231534D03*
X334755235Y-103292748D03*
X333709366Y-91338412D03*
D14*
X342557345Y-99247356D03*
X338298613Y-99619946D03*
%TD*%
D10*
%TO.C,S33*%
X340814230Y-79323462D03*
X336555498Y-79696052D03*
D13*
X345663793Y-82261976D03*
X344617924Y-70307640D03*
X333012120Y-83368854D03*
X331966251Y-71414518D03*
D14*
X340814230Y-79323462D03*
X336555498Y-79696052D03*
%TD*%
D10*
%TO.C,S34*%
X339071115Y-59399568D03*
X334812383Y-59772158D03*
D13*
X343920678Y-62338082D03*
X342874809Y-50383746D03*
X331269005Y-63444960D03*
X330223136Y-51490624D03*
D14*
X339071115Y-59399568D03*
X334812383Y-59772158D03*
%TD*%
D10*
%TO.C,S35*%
X337328000Y-39475674D03*
X333069268Y-39848264D03*
D13*
X342177563Y-42414188D03*
X341131694Y-30459852D03*
X329525890Y-43521066D03*
X328480021Y-31566730D03*
D14*
X337328000Y-39475674D03*
X333069268Y-39848264D03*
%TD*%
D10*
%TO.C,S36*%
X322197672Y-96009498D03*
X317938940Y-96382088D03*
D13*
X327047235Y-98948012D03*
X326001366Y-86993676D03*
X314395562Y-100054890D03*
X313349693Y-88100554D03*
D14*
X322197672Y-96009498D03*
X317938940Y-96382088D03*
%TD*%
D10*
%TO.C,S37*%
X320454557Y-76085604D03*
X316195825Y-76458194D03*
D13*
X325304120Y-79024118D03*
X324258251Y-67069782D03*
X312652447Y-80130996D03*
X311606578Y-68176660D03*
D14*
X320454557Y-76085604D03*
X316195825Y-76458194D03*
%TD*%
D10*
%TO.C,S38*%
X318711442Y-56161710D03*
X314452710Y-56534300D03*
D13*
X323561005Y-59100224D03*
X322515136Y-47145888D03*
X310909332Y-60207102D03*
X309863463Y-48252766D03*
D14*
X318711442Y-56161710D03*
X314452710Y-56534300D03*
%TD*%
D10*
%TO.C,S39*%
X316968327Y-36237816D03*
X312709595Y-36610406D03*
D13*
X321817890Y-39176330D03*
X320772021Y-27221994D03*
X309166217Y-40283208D03*
X308120348Y-28328872D03*
D14*
X316968327Y-36237816D03*
X312709595Y-36610406D03*
%TD*%
D10*
%TO.C,S40*%
X301837999Y-92771639D03*
X297579267Y-93144229D03*
D13*
X306687562Y-95710153D03*
X305641693Y-83755817D03*
X294035889Y-96817031D03*
X292990020Y-84862695D03*
D14*
X301837999Y-92771639D03*
X297579267Y-93144229D03*
%TD*%
D10*
%TO.C,S41*%
X300094884Y-72847745D03*
X295836152Y-73220335D03*
D13*
X304944447Y-75786259D03*
X303898578Y-63831923D03*
X292292774Y-76893137D03*
X291246905Y-64938801D03*
D14*
X300094884Y-72847745D03*
X295836152Y-73220335D03*
%TD*%
D10*
%TO.C,S42*%
X298351770Y-52923851D03*
X294093038Y-53296441D03*
D13*
X303201333Y-55862365D03*
X302155464Y-43908029D03*
X290549660Y-56969243D03*
X289503791Y-45014907D03*
D14*
X298351770Y-52923851D03*
X294093038Y-53296441D03*
%TD*%
D10*
%TO.C,S43*%
X296608655Y-32999957D03*
X292349923Y-33372547D03*
D13*
X301458218Y-35938471D03*
X300412349Y-23984135D03*
X288806545Y-37045349D03*
X287760676Y-25091013D03*
D14*
X296608655Y-32999957D03*
X292349923Y-33372547D03*
%TD*%
D10*
%TO.C,S44*%
X282611351Y-102484312D03*
X278352619Y-102856902D03*
D13*
X287460914Y-105422826D03*
X286415045Y-93468490D03*
X274809241Y-106529704D03*
X273763372Y-94575368D03*
D14*
X282611351Y-102484312D03*
X278352619Y-102856902D03*
%TD*%
D10*
%TO.C,S45*%
X280868236Y-82560417D03*
X276609504Y-82933007D03*
D13*
X285717799Y-85498931D03*
X284671930Y-73544595D03*
X273066126Y-86605809D03*
X272020257Y-74651473D03*
D14*
X280868236Y-82560417D03*
X276609504Y-82933007D03*
%TD*%
D10*
%TO.C,S46*%
X279125122Y-62636523D03*
X274866390Y-63009113D03*
D13*
X283974685Y-65575037D03*
X282928816Y-53620701D03*
X271323012Y-66681915D03*
X270277143Y-54727579D03*
D14*
X279125122Y-62636523D03*
X274866390Y-63009113D03*
%TD*%
D10*
%TO.C,S47*%
X277382007Y-42712629D03*
X273123275Y-43085219D03*
D13*
X282231570Y-45651143D03*
X281185701Y-33696807D03*
X269579897Y-46758021D03*
X268534028Y-34803685D03*
D14*
X277382007Y-42712629D03*
X273123275Y-43085219D03*
%TD*%
D10*
%TO.C,S48*%
X262687457Y-104227426D03*
X258428725Y-104600016D03*
D13*
X267537020Y-107165940D03*
X266491151Y-95211604D03*
X254885347Y-108272818D03*
X253839478Y-96318482D03*
D14*
X262687457Y-104227426D03*
X258428725Y-104600016D03*
%TD*%
D10*
%TO.C,S49*%
X260944343Y-84303532D03*
X256685611Y-84676122D03*
D13*
X265793906Y-87242046D03*
X264748037Y-75287710D03*
X253142233Y-88348924D03*
X252096364Y-76394588D03*
D14*
X260944343Y-84303532D03*
X256685611Y-84676122D03*
%TD*%
D10*
%TO.C,S50*%
X259201228Y-64379638D03*
X254942496Y-64752228D03*
D13*
X264050791Y-67318152D03*
X263004922Y-55363816D03*
X251399118Y-68425030D03*
X250353249Y-56470694D03*
D14*
X259201228Y-64379638D03*
X254942496Y-64752228D03*
%TD*%
D10*
%TO.C,S51*%
X257458113Y-44455744D03*
X253199381Y-44828334D03*
D13*
X262307676Y-47394258D03*
X261261807Y-35439922D03*
X249656003Y-48501136D03*
X248610134Y-36546800D03*
D14*
X257458113Y-44455744D03*
X253199381Y-44828334D03*
%TD*%
D10*
%TO.C,S52*%
X324376566Y-120914365D03*
X320117834Y-121286955D03*
D13*
X329226129Y-123852879D03*
X328180260Y-111898543D03*
X316574456Y-124959757D03*
X315528587Y-113005421D03*
D14*
X324376566Y-120914365D03*
X320117834Y-121286955D03*
%TD*%
D10*
%TO.C,S53*%
X304452672Y-122657480D03*
X300193940Y-123030070D03*
D13*
X309302235Y-125595994D03*
X308256366Y-113641658D03*
X296650562Y-126702872D03*
X295604693Y-114748536D03*
D14*
X304452672Y-122657480D03*
X300193940Y-123030070D03*
%TD*%
D10*
%TO.C,S54*%
X274566831Y-125272152D03*
X270308099Y-125644742D03*
D13*
X279416394Y-128210666D03*
X278370525Y-116256330D03*
X266764721Y-129317544D03*
X265718852Y-117363208D03*
D14*
X274566831Y-125272152D03*
X270308099Y-125644742D03*
%TD*%
D15*
%TO.C,D1*%
X102840374Y-97939715D03*
X99552932Y-97652101D03*
%TD*%
%TO.C,D2*%
X104583489Y-78015821D03*
X101296047Y-77728207D03*
%TD*%
%TO.C,D3*%
X106326604Y-58091927D03*
X103039162Y-57804313D03*
%TD*%
%TO.C,D4*%
X108069719Y-38168033D03*
X104782277Y-37880419D03*
%TD*%
%TO.C,D5*%
X123200047Y-94701856D03*
X119912605Y-94414242D03*
%TD*%
%TO.C,D6*%
X124943162Y-74777962D03*
X121655720Y-74490348D03*
%TD*%
%TO.C,D7*%
X126686276Y-54854068D03*
X123398834Y-54566454D03*
%TD*%
%TO.C,D8*%
X128429391Y-34930174D03*
X125141949Y-34642560D03*
%TD*%
%TO.C,D9*%
X143559719Y-91463998D03*
X140272277Y-91176384D03*
%TD*%
%TO.C,D10*%
X145302834Y-71540104D03*
X142015392Y-71252490D03*
%TD*%
%TO.C,D11*%
X147045949Y-51616210D03*
X143758507Y-51328596D03*
%TD*%
%TO.C,D12*%
X148789064Y-31692316D03*
X145501622Y-31404702D03*
%TD*%
%TO.C,D13*%
X163919392Y-88226139D03*
X160631950Y-87938525D03*
%TD*%
%TO.C,D14*%
X165662507Y-68302245D03*
X162375065Y-68014631D03*
%TD*%
%TO.C,D15*%
X167405622Y-48378351D03*
X164118180Y-48090737D03*
%TD*%
%TO.C,D16*%
X169148737Y-28454457D03*
X165861295Y-28166843D03*
%TD*%
%TO.C,D17*%
X183146040Y-97938811D03*
X179858598Y-97651197D03*
%TD*%
%TO.C,D18*%
X184889155Y-78014917D03*
X181601713Y-77727303D03*
%TD*%
%TO.C,D19*%
X186632270Y-58091023D03*
X183344828Y-57803409D03*
%TD*%
%TO.C,D20*%
X188375385Y-38167129D03*
X185087943Y-37879515D03*
%TD*%
%TO.C,D21*%
X203069934Y-99681926D03*
X199782492Y-99394312D03*
%TD*%
%TO.C,D22*%
X204813049Y-79758032D03*
X201525607Y-79470418D03*
%TD*%
%TO.C,D23*%
X206556164Y-59834138D03*
X203268722Y-59546524D03*
%TD*%
%TO.C,D24*%
X208299279Y-39910244D03*
X205011837Y-39622630D03*
%TD*%
%TO.C,D25*%
X141380826Y-116368865D03*
X138093384Y-116081251D03*
%TD*%
%TO.C,D26*%
X161304720Y-118111980D03*
X158017278Y-117824366D03*
%TD*%
%TO.C,D27*%
X191190561Y-120726652D03*
X187903119Y-120439038D03*
%TD*%
D16*
%TO.C,D28*%
X363357267Y-97477790D03*
X360069825Y-97765404D03*
%TD*%
%TO.C,D29*%
X361614152Y-77553895D03*
X358326710Y-77841509D03*
%TD*%
%TO.C,D30*%
X359871037Y-57630001D03*
X356583595Y-57917615D03*
%TD*%
%TO.C,D31*%
X358127922Y-37706107D03*
X354840480Y-37993721D03*
%TD*%
%TO.C,D32*%
X342997594Y-94239931D03*
X339710152Y-94527545D03*
%TD*%
%TO.C,D33*%
X341254479Y-74316037D03*
X337967037Y-74603651D03*
%TD*%
%TO.C,D34*%
X339511364Y-54392143D03*
X336223922Y-54679757D03*
%TD*%
%TO.C,D35*%
X337768249Y-34468249D03*
X334480807Y-34755863D03*
%TD*%
%TO.C,D36*%
X322637921Y-91002072D03*
X319350479Y-91289686D03*
%TD*%
%TO.C,D37*%
X320894807Y-71078178D03*
X317607365Y-71365792D03*
%TD*%
%TO.C,D38*%
X319151692Y-51154284D03*
X315864250Y-51441898D03*
%TD*%
%TO.C,D39*%
X317408577Y-31230390D03*
X314121135Y-31518004D03*
%TD*%
%TO.C,D40*%
X302278249Y-87764214D03*
X298990807Y-88051828D03*
%TD*%
%TO.C,D41*%
X300535134Y-67840320D03*
X297247692Y-68127934D03*
%TD*%
%TO.C,D42*%
X298792019Y-47916426D03*
X295504577Y-48204040D03*
%TD*%
%TO.C,D43*%
X297048904Y-27992532D03*
X293761462Y-28280146D03*
%TD*%
%TO.C,D44*%
X283051601Y-97476886D03*
X279764159Y-97764500D03*
%TD*%
%TO.C,D45*%
X281308486Y-77552992D03*
X278021044Y-77840606D03*
%TD*%
%TO.C,D46*%
X279565371Y-57629098D03*
X276277929Y-57916712D03*
%TD*%
%TO.C,D47*%
X277822256Y-37705204D03*
X274534814Y-37992818D03*
%TD*%
%TO.C,D48*%
X263127707Y-99220001D03*
X259840265Y-99507615D03*
%TD*%
%TO.C,D49*%
X261384592Y-79296107D03*
X258097150Y-79583721D03*
%TD*%
%TO.C,D50*%
X259641477Y-59372213D03*
X256354035Y-59659827D03*
%TD*%
%TO.C,D51*%
X257898362Y-39448319D03*
X254610920Y-39735933D03*
%TD*%
%TO.C,D52*%
X324816815Y-115906940D03*
X321529373Y-116194554D03*
%TD*%
%TO.C,D53*%
X304892921Y-117650055D03*
X301605479Y-117937669D03*
%TD*%
%TO.C,D54*%
X275007080Y-120264727D03*
X271719638Y-120552341D03*
%TD*%
D17*
%TO.C,JST1*%
X229458905Y-88742211D03*
D18*
X231458905Y-88742211D03*
%TD*%
D19*
%TO.C,B1*%
X210187116Y-127332448D03*
X210644683Y-122102426D03*
X211880647Y-127480612D03*
X212338214Y-122250590D03*
%TD*%
D20*
%TO.C,T1*%
X248881807Y-128573311D03*
X251073435Y-128381568D03*
X250428483Y-121009727D03*
X248236855Y-121201470D03*
D21*
X251918349Y-126852109D03*
X251787616Y-125357817D03*
X251526149Y-122369233D03*
%TD*%
M02*
