M48
; DRILL file {KiCad 9.0.2} date 2025-06-04T11:45:26-0600
; FORMAT={-:-/ absolute / metric / decimal}
; #@! TF.CreationDate,2025-06-04T11:45:26-06:00
; #@! TF.GenerationSoftware,Kicad,Pcbnew,9.0.2
; #@! TF.FileFunction,NonPlated,1,2,NPTH
FMAT,2
METRIC
; #@! TA.AperFunction,NonPlated,NPTH,ComponentDrill
T1C0.750
; #@! TA.AperFunction,NonPlated,NPTH,ComponentDrill
T2C0.900
; #@! TA.AperFunction,NonPlated,NPTH,ComponentDrill
T3C1.000
; #@! TA.AperFunction,NonPlated,NPTH,ComponentDrill
T4C1.200
; #@! TA.AperFunction,NonPlated,NPTH,ComponentDrill
T5C4.000
%
G90
G05
T1
X209.893Y-124.672
X212.632Y-124.911
T2
X249.524Y-123.297
X249.786Y-126.286
T3
X93.982Y-102.234
X95.726Y-82.31
X97.469Y-62.386
X99.212Y-42.462
X114.342Y-98.996
X116.085Y-79.072
X117.828Y-59.148
X119.571Y-39.224
X132.523Y-120.663
X134.702Y-95.758
X136.445Y-75.834
X138.188Y-55.911
X139.931Y-35.987
X152.447Y-122.406
X155.061Y-92.52
X156.805Y-72.597
X158.548Y-52.673
X160.291Y-32.749
X174.288Y-102.233
X176.031Y-82.309
X177.774Y-62.385
X179.517Y-42.461
X182.333Y-125.021
X194.212Y-103.976
X195.955Y-84.052
X197.698Y-64.128
X199.441Y-44.205
X249.921Y-45.216
X251.664Y-65.139
X253.407Y-85.063
X255.15Y-104.987
X267.029Y-126.032
X269.845Y-43.472
X271.588Y-63.396
X273.331Y-83.32
X275.074Y-103.244
X289.071Y-33.76
X290.814Y-53.684
X292.557Y-73.608
X294.301Y-93.531
X296.915Y-123.417
X309.431Y-36.998
X311.174Y-56.922
X312.917Y-76.845
X314.66Y-96.769
X316.839Y-121.674
X329.791Y-40.235
X331.534Y-60.159
X333.277Y-80.083
X335.02Y-100.007
X350.15Y-43.473
X351.893Y-63.397
X353.636Y-83.321
X355.38Y-103.245
T4
X106.018Y-97.766
X107.761Y-77.842
X109.504Y-57.918
X111.247Y-37.994
X126.377Y-94.528
X128.12Y-74.604
X129.864Y-54.68
X131.607Y-34.756
X144.558Y-116.195
X146.737Y-91.29
X148.48Y-71.366
X150.223Y-51.442
X151.966Y-31.519
X164.482Y-117.938
X167.097Y-88.052
X168.84Y-68.128
X170.583Y-48.205
X172.326Y-28.281
X186.323Y-97.765
X188.066Y-77.841
X189.81Y-57.917
X191.553Y-37.993
X194.368Y-120.553
X206.247Y-99.508
X207.99Y-79.584
X209.733Y-59.66
X211.477Y-39.736
X260.997Y-38.725
X262.74Y-58.649
X264.483Y-78.573
X266.226Y-98.497
X278.106Y-119.542
X280.921Y-36.982
X282.664Y-56.906
X284.407Y-76.83
X286.15Y-96.754
X300.148Y-27.27
X301.891Y-47.194
X303.634Y-67.117
X305.377Y-87.041
X307.992Y-116.927
X320.507Y-30.508
X322.25Y-50.431
X323.994Y-70.355
X325.737Y-90.279
X327.916Y-115.184
X340.867Y-33.745
X342.61Y-53.669
X344.353Y-73.593
X346.096Y-93.517
X361.227Y-36.983
X362.97Y-56.907
X364.713Y-76.831
X366.456Y-96.755
T5
X101.251Y-28.336
X124.295Y-109.152
X172.884Y-127.457
X217.959Y-36.0
X222.959Y-95.318
X237.959Y-95.318
X242.959Y-36.0
X288.033Y-127.457
X336.623Y-109.152
X359.667Y-28.336
M30
